<?xml version="1.0" encoding="UTF-8" standalone="no"?>
<svg
   fill="#ffffff"
   height="24"
   width="24"
   version="1.1"
   id="Layer_1"
   viewBox="0 0 14.76012 14.76012"
   xml:space="preserve"
   stroke="#ffffff"
   sodipodi:docname="raised-fist.svg"
   inkscape:version="1.4 (e7c3feb1, 2024-10-09)"
   xmlns:inkscape="http://www.inkscape.org/namespaces/inkscape"
   xmlns:sodipodi="http://sodipodi.sourceforge.net/DTD/sodipodi-0.dtd"
   xmlns="http://www.w3.org/2000/svg"
   xmlns:svg="http://www.w3.org/2000/svg"><defs
   id="defs1"><inkscape:path-effect
     effect="fillet_chamfer"
     id="path-effect9"
     is_visible="true"
     lpeversion="1"
     nodesatellites_param="F,0,0,1,0,0,0,1 @ F,0,0,1,0,6.6113038,0,1 @ F,0,0,1,0,0,0,1"
     radius="0"
     unit="px"
     method="auto"
     mode="F"
     chamfer_steps="1"
     flexible="false"
     use_knot_distance="true"
     apply_no_radius="true"
     apply_with_radius="true"
     only_selected="false"
     hide_knots="false" /><inkscape:path-effect
     effect="fillet_chamfer"
     id="path-effect8"
     is_visible="true"
     lpeversion="1"
     nodesatellites_param="F,0,0,1,0,0,0,1 @ F,0,0,1,0,0,0,1"
     radius="0"
     unit="px"
     method="auto"
     mode="F"
     chamfer_steps="1"
     flexible="false"
     use_knot_distance="true"
     apply_no_radius="true"
     apply_with_radius="true"
     only_selected="false"
     hide_knots="false" /><inkscape:path-effect
     effect="fillet_chamfer"
     id="path-effect7"
     is_visible="true"
     lpeversion="1"
     nodesatellites_param="F,0,0,1,0,0,0,1 @ F,0,0,1,0,0,0,1"
     radius="0"
     unit="px"
     method="auto"
     mode="F"
     chamfer_steps="1"
     flexible="false"
     use_knot_distance="true"
     apply_no_radius="true"
     apply_with_radius="true"
     only_selected="false"
     hide_knots="false" /><inkscape:path-effect
     effect="fillet_chamfer"
     id="path-effect6"
     is_visible="true"
     lpeversion="1"
     nodesatellites_param="F,0,0,1,0,4.6682854,0,1 @ F,0,1,1,0,4.6682854,0,1 @ F,0,1,1,0,4.6682854,0,1 @ F,0,1,1,0,4.6682854,0,1"
     radius="0"
     unit="px"
     method="auto"
     mode="F"
     chamfer_steps="1"
     flexible="false"
     use_knot_distance="true"
     apply_no_radius="true"
     apply_with_radius="true"
     only_selected="false"
     hide_knots="false" /><inkscape:path-effect
     effect="fillet_chamfer"
     id="path-effect5"
     is_visible="true"
     lpeversion="1"
     nodesatellites_param="F,0,0,1,0,0,0,1 @ F,0,1,1,0,10.293874,0,1 @ F,0,0,1,0,10.293874,0,1 @ F,0,0,1,0,8.6560922,0,1 @ F,0,0,1,0,0,0,1"
     radius="0"
     unit="px"
     method="auto"
     mode="F"
     chamfer_steps="1"
     flexible="false"
     use_knot_distance="true"
     apply_no_radius="true"
     apply_with_radius="true"
     only_selected="false"
     hide_knots="false" /><inkscape:path-effect
     effect="fillet_chamfer"
     id="path-effect4"
     is_visible="true"
     lpeversion="1"
     nodesatellites_param="F,0,0,1,0,0,0,1 @ F,0,0,1,0,0,0,1 @ F,0,0,1,0,4.8438423,0,1 @ F,0,0,1,0,5.5283765,0,1 @ F,0,0,1,0,0,0,1 @ F,0,0,1,0,0,0,1"
     radius="0"
     unit="px"
     method="auto"
     mode="F"
     chamfer_steps="1"
     flexible="false"
     use_knot_distance="true"
     apply_no_radius="true"
     apply_with_radius="true"
     only_selected="false"
     hide_knots="false" /><inkscape:path-effect
     effect="fillet_chamfer"
     id="path-effect3"
     is_visible="true"
     lpeversion="1"
     nodesatellites_param="F,0,0,1,0,0,0,1 @ F,0,0,1,0,0,0,1 @ F,0,0,1,0,13.727843,0,1 @ F,0,1,1,0,0,0,1"
     radius="0"
     unit="px"
     method="auto"
     mode="F"
     chamfer_steps="1"
     flexible="false"
     use_knot_distance="true"
     apply_no_radius="true"
     apply_with_radius="true"
     only_selected="false"
     hide_knots="false" /><inkscape:path-effect
     effect="fillet_chamfer"
     id="path-effect9-2"
     is_visible="true"
     lpeversion="1"
     nodesatellites_param="F,0,0,1,0,0,0,1 @ F,0,0,1,0,6.6113038,0,1 @ F,0,0,1,0,0,0,1"
     radius="0"
     unit="px"
     method="auto"
     mode="F"
     chamfer_steps="1"
     flexible="false"
     use_knot_distance="true"
     apply_no_radius="true"
     apply_with_radius="true"
     only_selected="false"
     hide_knots="false" /><inkscape:path-effect
     effect="fillet_chamfer"
     id="path-effect9-5"
     is_visible="true"
     lpeversion="1"
     nodesatellites_param="F,0,0,1,0,0,0,1 @ F,0,0,1,0,6.6113038,0,1 @ F,0,0,1,0,0,0,1"
     radius="0"
     unit="px"
     method="auto"
     mode="F"
     chamfer_steps="1"
     flexible="false"
     use_knot_distance="true"
     apply_no_radius="true"
     apply_with_radius="true"
     only_selected="false"
     hide_knots="false" /><inkscape:path-effect
     effect="fillet_chamfer"
     id="path-effect9-8"
     is_visible="true"
     lpeversion="1"
     nodesatellites_param="F,0,0,1,0,0,0,1 @ F,0,0,1,0,6.6113038,0,1 @ F,0,0,1,0,0,0,1"
     radius="0"
     unit="px"
     method="auto"
     mode="F"
     chamfer_steps="1"
     flexible="false"
     use_knot_distance="true"
     apply_no_radius="true"
     apply_with_radius="true"
     only_selected="false"
     hide_knots="false" /><inkscape:path-effect
     effect="fillet_chamfer"
     id="path-effect9-8-6"
     is_visible="true"
     lpeversion="1"
     nodesatellites_param="F,0,0,1,0,0,0,1 @ F,0,0,1,0,6.6113038,0,1 @ F,0,0,1,0,0,0,1"
     radius="0"
     unit="px"
     method="auto"
     mode="F"
     chamfer_steps="1"
     flexible="false"
     use_knot_distance="true"
     apply_no_radius="true"
     apply_with_radius="true"
     only_selected="false"
     hide_knots="false" /><inkscape:path-effect
     effect="fillet_chamfer"
     id="path-effect9-0"
     is_visible="true"
     lpeversion="1"
     nodesatellites_param="F,0,0,1,0,0,0,1 @ F,0,0,1,0,8.1097681,0,1 @ F,0,1,1,0,0,0,1"
     radius="0"
     unit="px"
     method="auto"
     mode="F"
     chamfer_steps="1"
     flexible="false"
     use_knot_distance="true"
     apply_no_radius="true"
     apply_with_radius="true"
     only_selected="false"
     hide_knots="false" /></defs><sodipodi:namedview
   id="namedview1"
   pagecolor="#000000"
   bordercolor="#000000"
   borderopacity="0.25"
   inkscape:showpageshadow="2"
   inkscape:pageopacity="0.0"
   inkscape:pagecheckerboard="0"
   inkscape:deskcolor="#d1d1d1"
   inkscape:zoom="13.623789"
   inkscape:cx="12.918579"
   inkscape:cy="18.240153"
   inkscape:window-width="1264"
   inkscape:window-height="992"
   inkscape:window-x="232"
   inkscape:window-y="33"
   inkscape:window-maximized="0"
   inkscape:current-layer="Layer_1" />

<g
   id="g1"
   transform="matrix(1.1903719,0,0,1.1,-1.8447043,-2.041735)"
   style="stroke-width:0.873901"><path
     style="fill:#ffffff;stroke:none;stroke-width:1.07491;stroke-linejoin:round"
     d="M 2.5265348,7.8118859 C 2.2780967,7.4850795 3.1818614,6.5858339 3.652861,5.9505772 4.1306334,5.3061856 4.5461651,4.7032157 4.7938909,4.676523 5.2187795,4.4942464 6.5454914,5.3879266 7.655662,5.8948001 7.6284596,6.2490174 7.2481848,6.8999248 6.8571227,7.1252019 4.9995778,7.1111221 4.2583811,6.7699794 4.2025151,7.4739703 4.1885481,8.1498016 5.2485294,8.0030867 6.1144525,8.0453262 6.2680841,9.2843502 6.5209544,11.852794 7.3449781,11.528958 8.2528006,11.500798 6.9818488,8.3891584 7.3030781,8.0230831 8.5600633,8.5299566 9.6494506,9.121309 10.822637,9.670422 c 0.391062,0.042239 0.77069,0.188144 1.077953,-0.1920112 -0.421333,1.8404022 -1.558613,2.3319242 -2.5481147,3.4444502 -0.167598,0.549113 0.6859887,1.646137 0.7278867,2.448686 l -6.1904025,0.0053 C 4.2391221,14.292657 4.5861993,13.316759 4.6420653,12.570529 4.2908523,11.73982 2.5919716,8.2335685 2.5265348,7.8118859 Z"
     id="path2"
     sodipodi:nodetypes="cscccccccccccccc" /><path
     style="fill:#ffffff;stroke:none;stroke-width:1.07491;stroke-linejoin:round"
     d="m 10.513658,7.8994288 c 0.07244,-0.2522131 0.164406,-0.4124947 0.275918,-0.5990424 L 11.150171,6.701344 11.510768,6.1023017 c 0.132777,-0.1700908 0.215238,-0.3528629 0.398334,-0.5102722 0.20349,-0.041322 0.547296,0.093947 0.713046,0.2174824 0.207683,0.144672 0.34855,0.3269432 0.392702,0.522341 -0.06407,0.2368323 -0.153306,0.3341686 -0.305435,0.5963637 l -0.380912,0.5836824 -0.38091,0.5836824 c -0.126971,0.1945608 -0.234401,0.4153879 -0.387425,0.458918 -0.165832,0.021659 -0.266528,0.00392 -0.438873,-0.092618 C 10.935921,8.3303221 10.542703,8.0375551 10.513658,7.8994288 Z"
     id="path3"
     sodipodi:nodetypes="ccccccccccccc" /><path
     style="fill:#ffffff;stroke:none;stroke-width:1.07491;stroke-linejoin:round"
     d="M 8.5213445,6.8525115 C 8.5736335,6.5649331 8.5976085,6.53365 8.7645455,6.2312195 L 9.1410574,5.6497305 9.5153829,5.0609196 C 9.6477518,4.8913526 9.8764748,4.4875868 10.059006,4.3306623 10.26187,4.2894663 10.604279,4.4556073 10.769521,4.5787621 10.976563,4.7229883 11.117334,4.873411 11.161347,5.068207 11.097477,5.3043098 10.862,5.622903 10.710339,5.8842907 L 10.330601,6.4661753 9.9508621,7.04806 C 9.8242832,7.2420217 9.7171845,7.4621686 9.5646313,7.5055645 9.3993095,7.5271573 9.2989246,7.5094691 9.1271099,7.4132319 8.9423076,7.2820775 8.5303823,7.1709218 8.5213445,6.8525115 Z"
     id="path3-6"
     sodipodi:nodetypes="ccccccccccccc" /><path
     style="fill:#ffffff;stroke:none;stroke-width:1.07491;stroke-linejoin:round"
     d="M 7.3677845,4.3134835 C 7.4008066,4.0872266 7.5606368,3.8931204 7.65314,3.7371736 7.8153838,3.4786033 8.0206341,3.1826651 8.2296126,3.1182324 8.4349772,3.0765294 8.7279497,3.2601346 8.8952283,3.3848076 9.1048232,3.5308122 9.2470242,3.6742599 9.2915804,3.8714574 9.2408432,4.0958115 9.2174156,4.1582172 8.8578878,4.6326099 8.7297483,4.8289629 8.6265685,4.9098564 8.4721346,4.9537874 8.3047746,4.9756463 8.1755835,4.9160517 8.0016507,4.8186281 7.8145702,4.6858566 7.393089,4.5700385 7.3677845,4.3134835 Z"
     id="path3-5"
     sodipodi:nodetypes="ccccccccc" /><path
     style="fill:#ffffff;stroke:none;stroke-width:1.07491;stroke-linejoin:round"
     d="M 5.4563746,3.4235604 C 5.3595451,3.1991521 5.6421737,2.865643 5.7339211,2.7109703 5.8948392,2.4545127 6.208289,2.0239967 6.3882166,1.8911773 6.5919032,1.849815 6.9205315,2.0167568 7.0864434,2.1404112 7.2943256,2.2852226 7.4508383,2.4361278 7.4950304,2.631714 7.4447079,2.854235 7.2854155,3.1285737 6.9288252,3.5990902 6.8017326,3.7938388 6.7029637,3.8937112 6.5497916,3.9372833 6.3334061,3.9952505 6.1318283,4.0137777 5.9593166,3.9171502 5.7737647,3.7854636 5.4814723,3.6780192 5.4563746,3.4235604 Z"
     id="path3-5-6"
     sodipodi:nodetypes="ccccccccc" /></g></svg>
