<svg width="24" height="24" viewBox="0 0 24 24" fill="none" xmlns="http://www.w3.org/2000/svg">
<path d="M20.0137 19.9941H13.1387V15.3105C13.1387 14.3223 13.2819 13.3913 13.5684 12.5176C13.8691 11.6296 14.306 10.8561 14.8789 10.1973C15.4518 9.53841 16.1608 9.00846 17.0059 8.60742C17.8652 8.20638 18.8678 8.00586 20.0137 8.00586V10.5195C17.1061 10.5195 15.6523 12.1165 15.6523 15.3105V15.9766H20.0137V19.9941ZM8.00391 19.9941H1.17188V15.3105C1.17188 14.3223 1.30794 13.3913 1.58008 12.5176C1.86654 11.6296 2.29622 10.8561 2.86914 10.1973C3.44206 9.53841 4.15104 9.00846 4.99609 8.60742C5.85547 8.20638 6.85807 8.00586 8.00391 8.00586V10.5195C5.125 10.5195 3.68555 12.1165 3.68555 15.3105V15.9766H8.00391V19.9941Z" fill="white"/>
</svg>
