<svg width="24" height="23" viewBox="0 0 24 23" fill="none" xmlns="http://www.w3.org/2000/svg">
<path d="M8.19922 5.08984V11.3105H10.8652C12.3327 11.3105 13.4036 11.0143 14.0781 10.4219C14.7617 9.82031 15.1035 9.04557 15.1035 8.09766C15.1035 7.07682 14.8073 6.3112 14.2148 5.80078C13.6315 5.28125 12.6517 5.02148 11.2754 5.02148C10.7467 5.02148 10.1725 5.0306 9.55273 5.04883C8.94206 5.05794 8.49089 5.07161 8.19922 5.08984ZM5.60156 16.7793V9.32812C5.60156 7.98828 5.59245 6.74414 5.57422 5.5957C5.55599 4.43815 5.49674 3.58594 5.39648 3.03906C5.99805 2.99349 6.85938 2.96159 7.98047 2.94336C9.11068 2.91602 10.2546 2.90234 11.4121 2.90234C13.4447 2.90234 15.0124 3.25326 16.1152 3.95508C17.2181 4.6569 17.7695 5.90104 17.7695 7.6875C17.7695 8.83594 17.4414 9.76562 16.7852 10.4766C16.138 11.1784 15.3496 11.707 14.4199 12.0625C15.1217 12.2448 15.8053 12.5273 16.4707 12.9102C17.1452 13.2839 17.7012 13.8171 18.1387 14.5098C18.5762 15.2025 18.7949 16.1185 18.7949 17.2578C18.7949 18.3607 18.5488 19.3587 18.0566 20.252C17.5645 21.1361 16.7806 21.8379 15.7051 22.3574C14.6387 22.877 13.2305 23.1367 11.4805 23.1367C10.5599 23.1367 9.68034 23.1276 8.8418 23.1094C8.00326 23.1003 7.27865 23.082 6.66797 23.0547C6.06641 23.0365 5.64258 23.0182 5.39648 23C5.49674 22.4531 5.55599 21.6191 5.57422 20.498C5.59245 19.3678 5.60156 18.1283 5.60156 16.7793ZM8.19922 13.4297V20.8809C8.45443 20.89 8.88281 20.9036 9.48438 20.9219C10.0951 20.9401 10.7832 20.9492 11.5488 20.9492C12.3327 20.9492 13.071 20.8398 13.7637 20.6211C14.4655 20.4023 15.0352 20.0241 15.4727 19.4863C15.9102 18.9486 16.1289 18.2057 16.1289 17.2578C16.1289 14.7057 14.5566 13.4297 11.4121 13.4297H8.19922Z" fill="white"/>
</svg>
