<svg width="24" height="25" viewBox="0 0 24 25" fill="none" xmlns="http://www.w3.org/2000/svg">
<path d="M5.00105 5.88867H16.4757L15.8702 8.30078C15.5382 8.21615 15.1866 8.16406 14.8155 8.14453C14.4444 8.11849 14.0603 8.10547 13.6632 8.10547H11.5538L9.58112 16.0059C9.35977 16.9108 9.17422 17.7116 9.02448 18.4082C8.87474 19.1048 8.79662 19.6354 8.79011 20H5.61628C5.78555 19.6354 5.96784 19.1048 6.16315 18.4082C6.36498 17.7116 6.57657 16.9108 6.79792 16.0059L8.77058 8.10547H6.70026C6.30964 8.10547 5.91901 8.11849 5.52839 8.14453C5.14427 8.16406 4.76667 8.21615 4.39558 8.30078L5.00105 5.88867Z" fill="white"/>
<path d="M1.6319 22.4H13.8878V23.7H1.6319V22.4Z" fill="white"/>
<path d="M20.0934 19.4732L21.9528 16.8326H24.2887L21.4528 20.981L24.3903 25.2857H22.0465L20.1012 22.5201L18.1715 25.2857H15.8199L18.7574 20.981L15.9293 16.8326H18.2653L20.0934 19.4732Z" fill="white"/>
</svg>
