<svg width="24" height="24" viewBox="0 0 24 24" fill="none" xmlns="http://www.w3.org/2000/svg">
<path d="M7.76172 15.0947V16.3252L1.0625 13.5908V12.4287L7.76172 9.69434V10.9248L2.36133 13.0098L7.76172 15.0947ZM14.3242 7.0625H15.3496L9.67578 19.6748H8.65039L14.3242 7.0625ZM16.2383 10.9248V9.69434L22.9375 12.4287V13.5908L16.2383 16.3252V15.0947L21.6387 13.0098L16.2383 10.9248Z" fill="white"/>
<path d="M7.76172 15.0947H8.26172V14.7518L7.9418 14.6283L7.76172 15.0947ZM7.76172 16.3252L7.57277 16.7881L8.26172 17.0693V16.3252H7.76172ZM1.0625 13.5908H0.5625V13.9268L0.873552 14.0537L1.0625 13.5908ZM1.0625 12.4287L0.873552 11.9658L0.5625 12.0927V12.4287H1.0625ZM7.76172 9.69434H8.26172V8.95021L7.57277 9.23141L7.76172 9.69434ZM7.76172 10.9248L7.9418 11.3912L8.26172 11.2677V10.9248H7.76172ZM2.36133 13.0098L2.18125 12.5433L0.973078 13.0098L2.18125 13.4762L2.36133 13.0098ZM7.26172 15.0947V16.3252H8.26172V15.0947H7.26172ZM7.95067 15.8623L1.25145 13.1279L0.873552 14.0537L7.57277 16.7881L7.95067 15.8623ZM1.5625 13.5908V12.4287H0.5625V13.5908H1.5625ZM1.25145 12.8916L7.95067 10.1573L7.57277 9.23141L0.873552 11.9658L1.25145 12.8916ZM7.26172 9.69434V10.9248H8.26172V9.69434H7.26172ZM7.58164 10.4584L2.18125 12.5433L2.54141 13.4762L7.9418 11.3912L7.58164 10.4584ZM2.18125 13.4762L7.58164 15.5612L7.9418 14.6283L2.54141 12.5433L2.18125 13.4762ZM14.3242 7.0625V6.5625H14.0009L13.8682 6.85737L14.3242 7.0625ZM15.3496 7.0625L15.8056 7.26763L16.1228 6.5625H15.3496V7.0625ZM9.67578 19.6748V20.1748H9.99911L10.1318 19.8799L9.67578 19.6748ZM8.65039 19.6748L8.19441 19.4697L7.87719 20.1748H8.65039V19.6748ZM14.3242 7.5625H15.3496V6.5625H14.3242V7.5625ZM14.8936 6.85737L9.2198 19.4697L10.1318 19.8799L15.8056 7.26763L14.8936 6.85737ZM9.67578 19.1748H8.65039V20.1748H9.67578V19.1748ZM9.10637 19.8799L14.7802 7.26763L13.8682 6.85737L8.19441 19.4697L9.10637 19.8799ZM16.2383 10.9248H15.7383V11.2677L16.0582 11.3912L16.2383 10.9248ZM16.2383 9.69434L16.4272 9.23141L15.7383 8.95021V9.69434H16.2383ZM22.9375 12.4287H23.4375V12.0927L23.1264 11.9658L22.9375 12.4287ZM22.9375 13.5908L23.1264 14.0537L23.4375 13.9268V13.5908H22.9375ZM16.2383 16.3252H15.7383V17.0693L16.4272 16.7881L16.2383 16.3252ZM16.2383 15.0947L16.0582 14.6283L15.7383 14.7518V15.0947H16.2383ZM21.6387 13.0098L21.8188 13.4762L23.0269 13.0098L21.8188 12.5433L21.6387 13.0098ZM16.7383 10.9248V9.69434H15.7383V10.9248H16.7383ZM16.0493 10.1573L22.7486 12.8916L23.1264 11.9658L16.4272 9.23141L16.0493 10.1573ZM22.4375 12.4287V13.5908H23.4375V12.4287H22.4375ZM22.7486 13.1279L16.0493 15.8623L16.4272 16.7881L23.1264 14.0537L22.7486 13.1279ZM16.7383 16.3252V15.0947H15.7383V16.3252H16.7383ZM16.4184 15.5612L21.8188 13.4762L21.4586 12.5433L16.0582 14.6283L16.4184 15.5612ZM21.8188 12.5433L16.4184 10.4584L16.0582 11.3912L21.4586 13.4762L21.8188 12.5433Z" fill="white"/>
</svg>
