<svg width="24" height="24" viewBox="0 0 24 24" fill="none" xmlns="http://www.w3.org/2000/svg">
<path d="M8.91406 15.6797V17.0859L1.25781 13.9609V12.6328L8.91406 9.50781V10.9141L2.74219 13.2969L8.91406 15.6797ZM15.0859 10.9141V9.50781L22.7422 12.6328V13.9609L15.0859 17.0859V15.6797L21.2578 13.2969L15.0859 10.9141Z" fill="white"/>
<path d="M8.91406 15.6797H9.41406V15.3368L9.09415 15.2132L8.91406 15.6797ZM8.91406 17.0859L8.72511 17.5489L9.41406 17.8301V17.0859H8.91406ZM1.25781 13.9609H0.757812V14.2969L1.06886 14.4239L1.25781 13.9609ZM1.25781 12.6328L1.06886 12.1699L0.757812 12.2968V12.6328H1.25781ZM8.91406 9.50781H9.41406V8.76369L8.72511 9.04489L8.91406 9.50781ZM8.91406 10.9141L9.09415 11.3805L9.41406 11.257V10.9141H8.91406ZM2.74219 13.2969L2.5621 12.8304L1.35394 13.2969L2.5621 13.7633L2.74219 13.2969ZM8.41406 15.6797V17.0859H9.41406V15.6797H8.41406ZM9.10301 16.623L1.44676 13.498L1.06886 14.4239L8.72511 17.5489L9.10301 16.623ZM1.75781 13.9609V12.6328H0.757812V13.9609H1.75781ZM1.44676 13.0957L9.10301 9.97074L8.72511 9.04489L1.06886 12.1699L1.44676 13.0957ZM8.41406 9.50781V10.9141H9.41406V9.50781H8.41406ZM8.73398 10.4476L2.5621 12.8304L2.92227 13.7633L9.09415 11.3805L8.73398 10.4476ZM2.5621 13.7633L8.73398 16.1461L9.09415 15.2132L2.92227 12.8304L2.5621 13.7633ZM15.0859 10.9141H14.5859V11.257L14.9059 11.3805L15.0859 10.9141ZM15.0859 9.50781L15.2749 9.04489L14.5859 8.76369V9.50781H15.0859ZM22.7422 12.6328H23.2422V12.2968L22.9311 12.1699L22.7422 12.6328ZM22.7422 13.9609L22.9311 14.4239L23.2422 14.2969V13.9609H22.7422ZM15.0859 17.0859H14.5859V17.8301L15.2749 17.5489L15.0859 17.0859ZM15.0859 15.6797L14.9059 15.2132L14.5859 15.3368V15.6797H15.0859ZM21.2578 13.2969L21.4379 13.7633L22.6461 13.2969L21.4379 12.8304L21.2578 13.2969ZM15.5859 10.9141V9.50781H14.5859V10.9141H15.5859ZM14.897 9.97074L22.5532 13.0957L22.9311 12.1699L15.2749 9.04489L14.897 9.97074ZM22.2422 12.6328V13.9609H23.2422V12.6328H22.2422ZM22.5532 13.498L14.897 16.623L15.2749 17.5489L22.9311 14.4239L22.5532 13.498ZM15.5859 17.0859V15.6797H14.5859V17.0859H15.5859ZM15.266 16.1461L21.4379 13.7633L21.0777 12.8304L14.9059 15.2132L15.266 16.1461ZM21.4379 12.8304L15.266 10.4476L14.9059 11.3805L21.0777 13.7633L21.4379 12.8304Z" fill="white"/>
</svg>
