<?xml version="1.0" encoding="UTF-8" standalone="no"?>
<svg
   width="30"
   height="30"
   version="1.1"
   id="svg1"
   sodipodi:docname="hidden.svg"
   inkscape:version="1.3 (0e150ed, 2023-07-21)"
   xmlns:inkscape="http://www.inkscape.org/namespaces/inkscape"
   xmlns:sodipodi="http://sodipodi.sourceforge.net/DTD/sodipodi-0.dtd"
   xmlns="http://www.w3.org/2000/svg"
   xmlns:svg="http://www.w3.org/2000/svg">
  <defs
     id="defs1" />
  <sodipodi:namedview
     id="namedview1"
     pagecolor="#000000"
     bordercolor="#000000"
     borderopacity="0.25"
     inkscape:showpageshadow="2"
     inkscape:pageopacity="0.0"
     inkscape:pagecheckerboard="0"
     inkscape:deskcolor="#d1d1d1"
     inkscape:zoom="3.425"
     inkscape:cx="-8.3211679"
     inkscape:cy="53.722628"
     inkscape:window-width="2416"
     inkscape:window-height="1323"
     inkscape:window-x="153"
     inkscape:window-y="475"
     inkscape:window-maximized="0"
     inkscape:current-layer="svg1" />
  <g
     id="Layer_1">
    <title
       id="title1">Layer 1</title>
    <path
       stroke="#000"
       id="svg_2"
       d="m-662.77444,-28.78769l0.76394,0l0.23606,-0.76393l0.23606,0.76393l0.76394,0l-0.61804,0.47213l0.23608,0.76393l-0.61804,-0.47214l-0.61804,0.47214l0.23608,-0.76393l-0.61804,-0.47213z"
       fill="#fff" />
    <line
       transform="rotate(87.5186 46.4869 137.283)"
       stroke-linecap="undefined"
       stroke-linejoin="undefined"
       id="svg_55"
       y2="23.64015"
       x2="89.76341"
       y1="23.44495"
       x1="82.59967"
       fill="none"
       stroke="#666666" />
    <g
       id="svg_6">
      <ellipse
         fill="#ffffff"
         stroke="#000"
         cx="14.97248"
         cy="15.16509"
         id="svg_3"
         rx="4.39675"
         ry="4.39675"
         stroke-width="0" />
      <path
         fill="#ffffff"
         stroke="#ffffff"
         stroke-width="0"
         opacity="NaN"
         d="m3.15623,13.79086c1.41065,-4.65315 7.08983,-9.81922 12.09111,-9.83755c5.00127,-0.01832 10.82693,4.79976 11.5414,9.398c-3.42578,-2.58307 -6.46685,-5.71574 -11.59636,-6.26533c-5.22115,0.56787 -8.0241,4.04857 -12.03615,6.70488z"
         id="svg_4"
         style="opacity:1" />
      <path
         fill="#ffffff"
         stroke="#ffffff"
         stroke-width="0"
         opacity="NaN"
         d="m26.84377,16.20914c-1.41065,4.65315 -7.08983,9.81922 -12.09111,9.83755c-5.00127,0.01832 -10.82693,-4.79976 -11.5414,-9.398c3.42578,2.58307 6.46685,5.71574 11.59636,6.26533c5.22115,-0.56787 8.0241,-4.04857 12.03615,-6.70488z"
         id="svg_5"
         style="opacity:1" />
    </g>
    <line
       stroke-width="3"
       stroke-linecap="undefined"
       stroke-linejoin="undefined"
       id="svg_1"
       y2="27.99999"
       x2="27.93749"
       y1="2.12501"
       x1="2.1875"
       stroke="#ffffff"
       fill="none" />
  </g>
</svg>
