<?xml version="1.0" encoding="UTF-8" standalone="no"?>
<svg
   width="30"
   height="30"
   version="1.1"
   id="svg1"
   sodipodi:docname="kick.svg"
   inkscape:version="1.3 (0e150ed, 2023-07-21)"
   xmlns:inkscape="http://www.inkscape.org/namespaces/inkscape"
   xmlns:sodipodi="http://sodipodi.sourceforge.net/DTD/sodipodi-0.dtd"
   xmlns="http://www.w3.org/2000/svg"
   xmlns:svg="http://www.w3.org/2000/svg">
  <defs
     id="defs1">
    <inkscape:path-effect
       effect="fillet_chamfer"
       id="path-effect2"
       is_visible="true"
       lpeversion="1"
       nodesatellites_param="F,0,0,1,0,1.6970803,0,1 @ F,0,0,1,0,1.6970803,0,1 @ F,0,0,1,0,4.1897814,0,1 @ F,0,0,1,0,0,0,1 @ F,0,0,1,0,7.6921915,0,1 @ F,0,0,1,0,0,0,1 @ F,0,0,1,0,1.7032503,0,1 @ F,0,0,1,0,3.25831,0,1 @ F,0,0,1,0,0.79014598,0,1 @ F,0,0,1,0,1.1605839,0,1"
       radius="0"
       unit="px"
       method="auto"
       mode="F"
       chamfer_steps="1"
       flexible="false"
       use_knot_distance="true"
       apply_no_radius="true"
       apply_with_radius="true"
       only_selected="false"
       hide_knots="false" />
  </defs>
  <sodipodi:namedview
     id="namedview1"
     pagecolor="#000000"
     bordercolor="#000000"
     borderopacity="0.25"
     inkscape:showpageshadow="2"
     inkscape:pageopacity="0.0"
     inkscape:pagecheckerboard="0"
     inkscape:deskcolor="#d1d1d1"
     inkscape:zoom="8"
     inkscape:cx="-31.0625"
     inkscape:cy="16.625"
     inkscape:window-width="2144"
     inkscape:window-height="1323"
     inkscape:window-x="214"
     inkscape:window-y="475"
     inkscape:window-maximized="0"
     inkscape:current-layer="svg1"
     showgrid="false" />
  <g
     id="Layer_1">
    <title
       id="title1">Layer 1</title>
  </g>
  <path
     style="fill:#ffffff;fill-opacity:1;stroke:none;stroke-width:3;stroke-linecap:square;stroke-miterlimit:80.4;stroke-dasharray:none;stroke-opacity:1;paint-order:fill markers stroke"
     d="m 1.6970803,0 h 9.7095487 c 0.937271,0 1.517249,0.73687918 1.481221,1.661523 -0.102197,2.6229013 -0.01533,7.8032324 0.06939,11.491243 0.05314,2.313259 1.985799,4.188188 4.299751,4.188188 l 4.276614,0 h 0.774204 A 7.6921915,7.6921915 45 0 1 30,25.033145 v 2.996052 H 16.083886 A 4.6380825,4.6380825 20.164829 0 1 13.082191,26.92688 L 9.5078546,23.89244 a 1.513762,1.513762 155.24853 0 0 -2.4934388,1.149568 l -0.00642,2.197046 A 0.79245799,0.79245799 135.0837 0 1 6.2155419,28.029197 H 1.1605839 A 1.1605839,1.1605839 45 0 1 0,26.868613 V 1.6970803 A 1.6970803,1.6970803 135 0 1 1.6970803,0 Z"
     id="path2"
     inkscape:path-effect="#path-effect2"
     inkscape:original-d="m 0,0 h 13.103709 c -0.56775,0.05161363 -0.0365,17.340954 -0.0365,17.340954 H 21.533604 30 V 28.029197 H 14.380636 L 7.0239359,21.783712 7.0056879,28.029197 H 0 Z"
     sodipodi:nodetypes="ccccccccccc"
     transform="matrix(-1,0,0,1,30,0.9854015)" />
</svg>
