<svg width="25" height="26" viewBox="0 0 25 26" fill="none" xmlns="http://www.w3.org/2000/svg">
<path d="M11.5404 21.7833L25 21.7833" stroke="white" stroke-width="2" stroke-linecap="round"/>
<path d="M11.5404 14.2574L25 14.2574" stroke="white" stroke-width="2" stroke-linecap="round"/>
<path d="M11.5404 6.30055L25 6.30055" stroke="white" stroke-width="2" stroke-linecap="round"/>
<mask id="path-4-inside-1_58_2" fill="white">
<path d="M6.71289 11.75H0.628906V10.1436H2.72754V3.75195L0.813477 4.79102L0.574219 3.01367L2.72754 1.76953H4.60742V10.1436H6.71289V11.75Z"/>
</mask>
<path d="M6.71289 11.75V13.75H8.71289V11.75H6.71289ZM0.628906 11.75H-1.37109V13.75H0.628906V11.75ZM0.628906 10.1436V8.14355H-1.37109V10.1436H0.628906ZM2.72754 10.1436V12.1436H4.72754V10.1436H2.72754ZM2.72754 3.75195H4.72754V0.390547L1.77336 1.99425L2.72754 3.75195ZM0.813477 4.79102L-1.16864 5.05784L-0.781653 7.93264L1.76766 6.54872L0.813477 4.79102ZM0.574219 3.01367L-0.426336 1.28194L-1.58669 1.95237L-1.4079 3.2805L0.574219 3.01367ZM2.72754 1.76953V-0.230469H2.1913L1.72698 0.0378011L2.72754 1.76953ZM4.60742 1.76953H6.60742V-0.230469H4.60742V1.76953ZM4.60742 10.1436H2.60742V12.1436H4.60742V10.1436ZM6.71289 10.1436H8.71289V8.14355H6.71289V10.1436ZM6.71289 9.75H0.628906V13.75H6.71289V9.75ZM2.62891 11.75V10.1436H-1.37109V11.75H2.62891ZM0.628906 12.1436H2.72754V8.14355H0.628906V12.1436ZM4.72754 10.1436V3.75195H0.727539V10.1436H4.72754ZM1.77336 1.99425L-0.140707 3.03331L1.76766 6.54872L3.68172 5.50966L1.77336 1.99425ZM2.7956 4.52419L2.55634 2.74685L-1.4079 3.2805L-1.16864 5.05784L2.7956 4.52419ZM1.57477 4.7454L3.72809 3.50126L1.72698 0.0378011L-0.426336 1.28194L1.57477 4.7454ZM2.72754 3.76953H4.60742V-0.230469H2.72754V3.76953ZM2.60742 1.76953V10.1436H6.60742V1.76953H2.60742ZM4.60742 12.1436H6.71289V8.14355H4.60742V12.1436ZM4.71289 10.1436V11.75H8.71289V10.1436H4.71289Z" fill="white" mask="url(#path-4-inside-1_58_2)"/>
<mask id="path-6-inside-2_58_2" fill="white">
<path d="M6.87012 23.9727V25.75H0.170898V24.2461C0.635742 23.9134 1.12337 23.5283 1.63379 23.0908C2.14876 22.6488 2.62956 22.1816 3.07617 21.6895C3.52734 21.1973 3.89421 20.7051 4.17676 20.2129C4.45931 19.7161 4.60059 19.249 4.60059 18.8115C4.60059 18.4059 4.47754 18.055 4.23145 17.7588C3.98535 17.458 3.60026 17.3076 3.07617 17.3076C2.6569 17.3076 2.21257 17.4261 1.74316 17.6631C1.27376 17.9001 0.886393 18.2031 0.581055 18.5723L0.136719 16.9316C0.346354 16.6764 0.619792 16.4486 0.957031 16.248C1.29883 16.0475 1.66797 15.8903 2.06445 15.7764C2.46549 15.6579 2.8597 15.5986 3.24707 15.5986C3.90788 15.5986 4.48665 15.7171 4.9834 15.9541C5.4847 16.1865 5.87435 16.5169 6.15234 16.9453C6.43034 17.3737 6.56934 17.8818 6.56934 18.4697C6.56934 19.0257 6.43945 19.5749 6.17969 20.1172C5.92448 20.6549 5.59635 21.1676 5.19531 21.6553C4.79427 22.1429 4.37044 22.5941 3.92383 23.0088C3.48177 23.4189 3.07389 23.7744 2.7002 24.0752H4.51172C4.96289 24.0752 5.32747 24.0729 5.60547 24.0684C5.88346 24.0638 6.11816 24.0547 6.30957 24.041C6.50098 24.0273 6.68783 24.0046 6.87012 23.9727Z"/>
</mask>
<path d="M6.87012 23.9727H8.87012V21.5923L6.52536 22.0026L6.87012 23.9727ZM6.87012 25.75V27.75H8.87012V25.75H6.87012ZM0.170898 25.75H-1.8291V27.75H0.170898V25.75ZM0.170898 24.2461L-0.993086 22.6197L-1.8291 23.218V24.2461H0.170898ZM1.63379 23.0908L2.93537 24.6093L2.93648 24.6084L1.63379 23.0908ZM3.07617 21.6895L1.60184 20.338L1.59505 20.3455L3.07617 21.6895ZM4.17676 20.2129L5.91128 21.2086L5.9152 21.2017L4.17676 20.2129ZM4.23145 17.7588L2.68353 19.0253L2.68828 19.0311L2.69306 19.0368L4.23145 17.7588ZM1.74316 17.6631L2.64452 19.4485L1.74316 17.6631ZM0.581055 18.5723L-1.3494 19.0951L-0.339683 22.8233L2.12217 19.847L0.581055 18.5723ZM0.136719 16.9316L-1.40873 15.6622L-2.06333 16.4591L-1.79373 17.4545L0.136719 16.9316ZM0.957031 16.248L-0.0550155 14.523L-0.0651195 14.529L0.957031 16.248ZM2.06445 15.7764L2.61681 17.6986L2.62399 17.6965L2.63115 17.6944L2.06445 15.7764ZM4.9834 15.9541L4.12225 17.7592L4.13217 17.7639L4.14215 17.7686L4.9834 15.9541ZM6.15234 16.9453L4.47464 18.034L6.15234 16.9453ZM6.17969 20.1172L4.37592 19.2532L4.37284 19.2597L6.17969 20.1172ZM3.92383 23.0088L5.28415 24.4749L5.28473 24.4744L3.92383 23.0088ZM2.7002 24.0752L1.44618 22.5172L-2.9744 26.0752H2.7002V24.0752ZM4.87012 23.9727V25.75H8.87012V23.9727H4.87012ZM6.87012 23.75H0.170898V27.75H6.87012V23.75ZM2.1709 25.75V24.2461H-1.8291V25.75H2.1709ZM1.33488 25.8725C1.85452 25.5006 2.38815 25.0784 2.93537 24.6093L0.332206 21.5723C-0.141402 21.9783 -0.583031 22.3262 -0.993086 22.6197L1.33488 25.8725ZM2.93648 24.6084C3.51314 24.1134 4.0537 23.5884 4.55729 23.0334L1.59505 20.3455C1.20542 20.7749 0.784381 21.1842 0.331101 21.5733L2.93648 24.6084ZM4.55048 23.0409C5.08427 22.4586 5.54383 21.8487 5.91126 21.2086L2.44225 19.2172C2.24458 19.5615 1.97042 19.9359 1.60186 20.338L4.55048 23.0409ZM5.9152 21.2017C6.31813 20.4934 6.60059 19.6861 6.60059 18.8115H2.60059C2.60059 18.8119 2.60049 18.9389 2.43831 19.224L5.9152 21.2017ZM6.60059 18.8115C6.60059 17.966 6.33097 17.1562 5.76983 16.4807L2.69306 19.0368C2.66956 19.0085 2.64098 18.963 2.62097 18.9059C2.61171 18.8795 2.60635 18.8565 2.60346 18.8387C2.6006 18.8211 2.60059 18.8115 2.60059 18.8115H6.60059ZM5.77936 16.4923C5.03203 15.5789 3.97775 15.3076 3.07617 15.3076V19.3076C3.15316 19.3076 3.1227 19.3194 3.03051 19.2834C2.92401 19.2418 2.79206 19.1579 2.68353 19.0253L5.77936 16.4923ZM3.07617 15.3076C2.27437 15.3076 1.52135 15.5346 0.84181 15.8777L2.64452 19.4485C2.90378 19.3176 3.03943 19.3076 3.07617 19.3076V15.3076ZM0.84181 15.8777C0.150448 16.2267 -0.462447 16.6959 -0.960056 17.2975L2.12217 19.847C2.23523 19.7103 2.39708 19.5734 2.64452 19.4485L0.84181 15.8777ZM2.51151 18.0494L2.06717 16.4088L-1.79373 17.4545L-1.3494 19.0951L2.51151 18.0494ZM1.68217 18.2011C1.72 18.1551 1.8046 18.0709 1.97918 17.9671L-0.0651195 14.529C-0.565015 14.8262 -1.02729 15.1978 -1.40873 15.6622L1.68217 18.2011ZM1.96906 17.9731C2.16068 17.8607 2.37459 17.7682 2.61681 17.6986L1.51209 13.8542C0.961348 14.0124 0.436981 14.2344 -0.054998 14.523L1.96906 17.9731ZM2.63115 17.6944C2.86277 17.626 3.06617 17.5986 3.24707 17.5986V13.5986C2.65323 13.5986 2.06822 13.6898 1.49776 13.8583L2.63115 17.6944ZM3.24707 17.5986C3.66887 17.5986 3.94304 17.6737 4.12225 17.7592L5.84455 14.149C5.03027 13.7605 4.14689 13.5986 3.24707 13.5986V17.5986ZM4.14215 17.7686C4.33101 17.8561 4.4184 17.9474 4.47464 18.034L7.83005 15.8566C7.3303 15.0865 6.63839 14.5169 5.82465 14.1396L4.14215 17.7686ZM4.47464 18.034C4.5119 18.0914 4.56934 18.2084 4.56934 18.4697H8.56934C8.56934 17.5553 8.34878 16.6559 7.83005 15.8566L4.47464 18.034ZM4.56934 18.4697C4.56934 18.7028 4.51723 18.9582 4.37593 19.2532L7.98344 20.9812C8.36168 20.1915 8.56934 19.3486 8.56934 18.4697H4.56934ZM4.37284 19.2597C4.19191 19.6409 3.95399 20.016 3.65062 20.3849L6.74001 22.9257C7.23872 22.3193 7.65705 21.669 7.98654 20.9747L4.37284 19.2597ZM3.65062 20.3849C3.30438 20.8059 2.94168 21.1915 2.56293 21.5432L5.28473 24.4744C5.79921 23.9966 6.28417 23.4799 6.74001 22.9257L3.65062 20.3849ZM2.56351 21.5427C2.14752 21.9286 1.77553 22.2521 1.44618 22.5172L3.95421 25.6332C4.37226 25.2967 4.81602 24.9093 5.28415 24.4749L2.56351 21.5427ZM2.7002 26.0752H4.51172V22.0752H2.7002V26.0752ZM4.51172 26.0752C4.96801 26.0752 5.34476 26.0729 5.63825 26.0681L5.57269 22.0686C5.31019 22.0729 4.95777 22.0752 4.51172 22.0752V26.0752ZM5.63825 26.0681C5.9382 26.0632 6.21197 26.0531 6.45206 26.0359L6.16708 22.0461C6.02436 22.0563 5.82873 22.0644 5.57269 22.0686L5.63825 26.0681ZM6.45206 26.0359C6.70879 26.0176 6.96322 25.9868 7.21488 25.9427L6.52536 22.0026C6.41243 22.0224 6.29317 22.0371 6.16708 22.0461L6.45206 26.0359Z" fill="white" mask="url(#path-6-inside-2_58_2)"/>
</svg>
