<svg width="32" height="33" viewBox="0 0 32 33" fill="none" xmlns="http://www.w3.org/2000/svg">
<path d="M19.7202 29.7956C20.4105 29.7962 20.9696 30.3565 20.9689 31.0468C20.9682 31.7372 20.408 32.2962 19.7176 32.2956L19.7202 29.7956ZM14.0401 31.0398L14.0389 32.2898L14.0389 32.2898L14.0401 31.0398ZM14.0602 11.1407L14.059 12.3907L14.0602 11.1407ZM28.8856 10.2718C29.3733 10.7605 29.3725 11.5519 28.8838 12.0396L20.9209 19.9865C20.4322 20.4741 19.6407 20.4733 19.1531 19.9847C18.6654 19.4961 18.6662 18.7046 19.1549 18.2169L26.2331 11.153L19.1692 4.07481C18.6815 3.58616 18.6823 2.7947 19.1709 2.30704C19.6596 1.81938 20.451 1.82018 20.9387 2.30882L28.8856 10.2718ZM4.10063 21.0987L2.85063 21.0998L4.10063 21.0987ZM19.7176 32.2956L14.0389 32.2898L14.0414 29.7898L19.7202 29.7956L19.7176 32.2956ZM14.0615 9.89072L28.0021 9.9048L27.9996 12.4048L14.059 12.3907L14.0615 9.89072ZM2.85063 21.0998C2.84535 14.9063 7.86801 9.88446 14.0615 9.89072L14.059 12.3907C9.24801 12.3859 5.34653 16.2867 5.35063 21.0977L2.85063 21.0998ZM14.0389 32.2898C7.86167 32.2836 2.85589 27.277 2.85063 21.0998L5.35063 21.0977C5.35472 25.896 9.24309 29.785 14.0414 29.7898L14.0389 32.2898Z" fill="white"/>
</svg>
