<svg width="24" height="24" viewBox="0 0 24 24" fill="none" xmlns="http://www.w3.org/2000/svg">
<path d="M17.6328 4.92773L17.0859 7.59375C16.1107 7.05599 15.2539 6.67318 14.5156 6.44531C13.7773 6.20833 12.9707 6.08984 12.0957 6.08984C11.3665 6.08984 10.724 6.23112 10.168 6.51367C9.61198 6.79622 9.17904 7.16081 8.86914 7.60742C8.55924 8.05404 8.4043 8.52799 8.4043 9.0293C8.4043 9.5306 8.50911 9.97266 8.71875 10.3555C8.92839 10.7383 9.35677 11.0983 10.0039 11.4355C10.651 11.7728 11.6217 12.1328 12.916 12.5156C14.7298 13.0443 16.1152 13.7552 17.0723 14.6484C18.0384 15.5326 18.5215 16.7129 18.5215 18.1895C18.5215 19.4108 18.2116 20.4863 17.5918 21.416C16.972 22.3366 16.1426 23.0566 15.1035 23.5762C14.0736 24.0866 12.9342 24.3418 11.6855 24.3418C10.3639 24.3418 9.13802 24.1686 8.00781 23.8223C6.8776 23.4759 5.96159 23.0339 5.25977 22.4961L5.875 19.6934C6.77734 20.4772 7.71615 21.0514 8.69141 21.416C9.67578 21.7715 10.6738 21.9492 11.6855 21.9492C12.4238 21.9492 13.112 21.8125 13.75 21.5391C14.3971 21.2656 14.9212 20.8691 15.3223 20.3496C15.7233 19.8301 15.9238 19.2012 15.9238 18.4629C15.9238 17.9798 15.8099 17.5286 15.582 17.1094C15.3542 16.6901 14.8893 16.2799 14.1875 15.8789C13.4857 15.4779 12.4238 15.0632 11.002 14.6348C9.58008 14.2064 8.49544 13.7233 7.74805 13.1855C7.00065 12.6478 6.49023 12.0508 6.2168 11.3945C5.94336 10.7292 5.80664 10.0091 5.80664 9.23438C5.80664 8.65104 5.92969 8.04036 6.17578 7.40234C6.42188 6.75521 6.80013 6.15365 7.31055 5.59766C7.83008 5.03255 8.49544 4.57682 9.30664 4.23047C10.127 3.875 11.1022 3.69727 12.2324 3.69727C13.2897 3.69727 14.2331 3.79753 15.0625 3.99805C15.8919 4.18945 16.7487 4.49935 17.6328 4.92773Z" fill="white"/>
<path d="M3.96094 14.4297H20.0254V15.7969H3.96094V14.4297Z" fill="white"/>
</svg>
