<svg width="24" height="24" viewBox="0 0 24 24" fill="none" xmlns="http://www.w3.org/2000/svg">
<path d="M15.8672 4.89062H18.2695C18.1914 5.35938 18.1406 6.02344 18.1172 6.88281C18.1016 7.74219 18.0938 8.77734 18.0938 9.98828V15.9648C18.0938 17.8711 17.5859 19.4023 16.5703 20.5586C15.5625 21.7148 14 22.293 11.8828 22.293C9.74219 22.293 8.16016 21.7148 7.13672 20.5586C6.12109 19.4023 5.61328 17.8711 5.61328 15.9648V9.98828C5.61328 8.83203 5.60547 7.8125 5.58984 6.92969C5.57422 6.03906 5.52344 5.35938 5.4375 4.89062H7.83984V15.4375C7.83984 16.4531 7.96094 17.3359 8.20312 18.0859C8.45312 18.8281 8.87109 19.4023 9.45703 19.8086C10.0508 20.2148 10.8594 20.418 11.8828 20.418C12.8906 20.418 13.6836 20.2148 14.2617 19.8086C14.8398 19.4023 15.25 18.8281 15.4922 18.0859C15.7422 17.3359 15.8672 16.4531 15.8672 15.4375V4.89062Z" fill="white"/>
<path d="M3.5625 22.48H20.4375V24.28H3.5625V22.48Z" fill="white"/>
</svg>
