<svg width="32" height="33" viewBox="0 0 32 33" fill="none" xmlns="http://www.w3.org/2000/svg">
<path d="M10.9756 29.7884C10.2853 29.7889 9.72598 30.3489 9.72642 31.0392C9.72686 31.7296 10.2869 32.2889 10.9772 32.2884L10.9756 29.7884ZM17.9784 31.034L17.9792 32.284L17.9792 32.284L17.9784 31.034ZM17.9467 11.1563L17.9435 9.90625L17.9467 11.1563ZM3.11282 10.3102C2.62591 10.7996 2.62793 11.5911 3.11733 12.078L11.0926 20.0126C11.582 20.4995 12.3734 20.4975 12.8603 20.0081C13.3472 19.5187 13.3452 18.7272 12.8558 18.2403L5.76671 11.1873L12.8197 4.09824C13.3066 3.60884 13.3046 2.81739 12.8152 2.33048C12.3258 1.84357 11.5343 1.84559 11.0474 2.33499L3.11282 10.3102ZM27.9109 21.1152L29.1609 21.1177L29.1609 21.1177L27.9109 21.1152ZM10.9772 32.2884L17.9792 32.284L17.9776 29.784L10.9756 29.7884L10.9772 32.2884ZM17.9435 9.90625L3.99576 9.94185L4.00214 12.4418L17.9499 12.4062L17.9435 9.90625ZM29.1609 21.1177C29.1735 14.9183 24.1429 9.89043 17.9435 9.90625L17.9499 12.4062C22.7641 12.394 26.6707 16.2984 26.6609 21.1127L29.1609 21.1177ZM17.9792 32.284C24.147 32.2801 29.1485 27.2856 29.1609 21.1177L26.6609 21.1127C26.6513 25.9024 22.7673 29.781 17.9776 29.784L17.9792 32.284Z" fill="white"/>
</svg>
