<svg width="100" height="102" viewBox="0 0 100 102" fill="none" xmlns="http://www.w3.org/2000/svg">
<path d="M91.1362 68.25L56.4952 8.25C53.6084 3.25 46.3916 3.25 43.5048 8.25L8.86379 68.25C5.97704 73.25 9.58549 79.5 15.359 79.5H84.641C90.4145 79.5 94.023 73.25 91.1362 68.25Z" fill="#fff769" stroke="#fff769" stroke-width="5"/>
<path d="M54.35 27.5C54.35 30.2 54.2 34.15 53.9 39.35C53.6 44.35 53.45 48.175 53.45 50.825C53.45 51.525 53.5 52.975 53.6 55.175C53.55 56.025 53.25 56.675 52.7 57.125C52.15 57.525 51.5 57.725 50.75 57.725C49.95 57.725 49.225 57.525 48.575 57.125C47.925 56.725 47.525 56.2 47.375 55.55C46.775 51.45 46.475 46.55 46.475 40.85L46.55 29.15C46.55 27.3 46.775 25.8 47.225 24.65C47.725 23.45 48.775 22.85 50.375 22.85C51.725 22.85 52.725 23.3 53.375 24.2C54.025 25.05 54.35 26.15 54.35 27.5ZM50.375 61.625C53.775 61.625 55.475 62.9 55.475 65.45C55.475 66.75 55.05 67.95 54.2 69.05C53.4 70.1 52.375 70.625 51.125 70.625C49.625 70.625 48.4 70.175 47.45 69.275C46.5 68.325 46.025 67.225 46.025 65.975C46.025 64.875 46.425 63.875 47.225 62.975C48.075 62.075 49.125 61.625 50.375 61.625Z" fill="black"/>
</svg>
